<svg width="56" height="56" viewBox="0 0 56 56" fill="none" xmlns="http://www.w3.org/2000/svg">
<path d="M56 24.5V56H50.4V45.5H5.6V56H0V0H5.6V35H28V10.5H44.8C50.9855 10.5 56 16.768 56 24.5ZM50.4 35V24.5C50.4 20.634 47.8929 17.5 44.8 17.5H33.6V35H50.4ZM16.8 24.5C18.3464 24.5 19.6 22.9331 19.6 21C19.6 19.067 18.3464 17.5 16.8 17.5C15.2536 17.5 14 19.067 14 21C14 22.9331 15.2536 24.5 16.8 24.5ZM16.8 31.5C12.1608 31.5 8.4 26.7992 8.4 21C8.4 15.201 12.1608 10.5 16.8 10.5C21.4392 10.5 25.2 15.201 25.2 21C25.2 26.7992 21.4392 31.5 16.8 31.5Z" fill="white"/>
</svg>
