<svg width="20" height="21" viewBox="0 0 20 21" fill="none" xmlns="http://www.w3.org/2000/svg">
<path d="M5.75 3.01392C5.33579 3.01392 5 3.3497 5 3.76392V16.2639C5 16.6781 5.33579 17.0139 5.75 17.0139H7.25C7.66421 17.0139 8 16.6781 8 16.2639V3.76392C8 3.3497 7.66421 3.01392 7.25 3.01392H5.75Z" fill="white" style="fill:white;fill-opacity:1;"/>
<path d="M12.75 3.01392C12.3358 3.01392 12 3.3497 12 3.76392V16.2639C12 16.6781 12.3358 17.0139 12.75 17.0139H14.25C14.6642 17.0139 15 16.6781 15 16.2639V3.76392C15 3.3497 14.6642 3.01392 14.25 3.01392H12.75Z" fill="white" style="fill:white;fill-opacity:1;"/>
</svg>
