<svg id="logosandtypes_com" xmlns="http://www.w3.org/2000/svg" viewBox="0 0 150 150"><path d="M0 0h150v150H0V0z" fill="none"/><path d="M26 66.3l22.8 22.8c.4 16 13.8 27 28.5 25.7 13.3-1.3 23.6-12.5 23.6-25.9l-30-29.8c.3-2.6 1.6-4 3.7-4.2 1.9-.2 3.7 1.1 4.2 3.3.2.7.7 1.3 1.3 1.8 9.2 9.3 18.5 18.5 27.8 27.8.3.3.6.5.9.7.6 15.7-11.3 31.8-29.6 34.1C58.7 125.1 41.1 109 41 89.3l-7-7v6c-.1 8.9 2.7 17.6 7.9 24.8 15.6 21.6 48 22.5 64.8 1.8 6-7.3 9.3-16.4 9.3-25.8L86 59.3c-.4-7.7-6.3-11.9-12.3-11.4-5.4.5-9.9 5.5-9.7 11l29.8 29.8c.2 4.8-1.6 9.4-4.9 12.9-5.3 5.6-11.8 7.6-19.2 5.5s-12.2-7.2-13.4-14.9c-.2-1.1-.4-2.3-.4-3.5-9-8.9-21-20.9-30-29.8-.1-5.5.8-10.9 2.7-16 6.3-17 18.3-27.7 36-31.8C87 5.9 111 18.4 119.8 39.6c2.6 6.3 4 13.1 3.9 19.9 0 6.9.1 21.5-.1 21.8l-22.8-22.9C100.5 42.7 87.3 32 73.2 33 58 34 48.7 46.8 48.9 59.3l29.9 29.8c-.4 2.4-1.6 3.6-3.7 3.8s-3.6-1-4.2-3.3c-.2-.7-.6-1.3-1.1-1.7-9.3-9.4-18.6-18.6-27.9-27.9-.3-.2-.6-.5-.9-.7-.7-15 10.9-32.3 30.6-34.2 18.6-1.8 35.1 11.8 37 30.3.1 1 .2 2.1.2 3.1l6.9 6.8c1.1-14.4-2.6-27.1-13.5-37.1-12.2-10.9-30.6-13.4-45.5-6-16.1 8-23.2 24-22.7 36.8l29.7 29.6c.5 7.9 6.4 11.5 11.4 11.2 6.1-.3 10.7-5 10.7-11L56 59.2c-.5-8.7 6.1-17 14.7-18.8 12.2-2.6 22.6 6.5 23.1 17.3 0 .9.4 1.7 1.1 2.2l29 29c.1 6.1-1.1 12.1-3.3 17.7-7.1 17-19.7 27.5-37.9 30.5-25.4 4.2-48.9-12-55.1-36.1-1-4-1.6-8.2-1.5-12.3-.2-7.2-.1-22.1-.1-22.4z" fill="#f15a27"/></svg>