<?xml version="1.0" encoding="UTF-8"?>
<svg id="Layer_1" xmlns="http://www.w3.org/2000/svg" version="1.1" viewBox="0 0 1800 1800">
  <!-- Generator: Adobe Illustrator 29.2.1, SVG Export Plug-In . SVG Version: 2.1.0 Build 116)  -->
  <defs>
    <style>
      .st0 {
        fill: #fff;
      }
    </style>
  </defs>
  <path class="st0" d="M845.6,260.4c72.6,7.9,151.7,40.6,194.2,102.7,46.1,67.4,59.6,160.9,59,241.2,39.4,37,23.2,124.1-28.4,141.9l-7.5,25.8c-97.1,27-183.4,84.1-243.1,165.4-102.8,139.8-115.7,330.7-27.7,481.3,1.2,4-8.8.7-11,.6-139.5-5.3-285.8-15.2-422.5-44.7-19.7-4.2-60.1-10.9-70.1-29.1-22.2-40.6-14.9-147.7,12.9-185.1,32.4-43.5,150-74,203.3-91.6,38.7-12.8,75.7-20.2,111.1-41.6,52.1-31.5,70.5-57.9,62.7-121.2-5-41.2-29.1-47-54.2-72.4-12-12.1-20.3-32.2-26.4-48-3.2-8.3-8.7-32-12.2-37.4-1.6-2.4-13.5-6.8-17.5-9.9-32-25-39.5-78.7-23-114.4,2.3-4.9,10-14.7,10.6-18.1,2.4-13.1.4-37.4,1.4-52.1,11-158,81.4-283.2,253.1-293h35.3Z"/>
  <path class="st0" d="M1043.7,878c13.4-1.8,29.5,2.8,39.5,12,3.2,2.9,5.9,7.7,9.7,11.2,39.2,35.9,101.1,39.5,144.1,8.3,21.3-15.5,27.2-35.6,59.5-31.9,16.2,1.9,88.2,44,97.8,57.5,17.8,25.1,3.1,39.4.9,63.4-4.7,51.7,23.3,101.8,72.6,120.2,13.4,5,25.1,4.6,36.8,14.1,14.9,12.1,16.8,26.2,18.4,44.3,2,21.9,3.9,74.7-6.3,92.9-13.6,24.1-35.5,21.2-57.2,31.5-40,19-66.1,63.6-64.4,107.9,1.2,29.7,21.3,52.9-7.1,79-14.4,13.3-63.9,41.4-82.5,48-38.8,13.6-50.8-20.1-78.6-35.6-38.8-21.7-84.5-19.2-121.3,5.4-21,14-29.9,37-60.7,33-15.1-2-82.5-40.7-94-52.1-23-22.7-8.5-43.3-6.1-67.4,4.6-45.9-15.4-90.5-55.6-113.8-23.8-13.8-55.9-12-67.6-40.7-6.9-16.9-6.2-84-2.9-103.4,6.3-38.1,44-35.4,70.5-50.8,38.4-22.3,59.3-65.8,55.7-110-2.1-25.2-18.2-45.1,4-69.1,11.4-12.4,79-51.7,94.9-53.9h0ZM1162.5,1067.2c-105,5.7-167.8,120.1-114.8,211.9,55,95.1,196.3,92.2,247.1-5.2,50.4-96.6-24.1-212.6-132.3-206.7h0Z"/>
</svg>